<svg width="16" height="16" viewBox="0 0 16 16" fill="none" xmlns="http://www.w3.org/2000/svg">
<path d="M4.80956 8.75517L9.37497 5.94236C9.47722 5.87969 9.60812 5.88569 9.70386 5.9597C10.1376 6.29371 10.5251 6.6324 10.7837 6.91708C10.7837 6.91708 11.0064 7.14509 11.1028 7.28976C11.2584 7.48711 11.3333 7.74512 11.3333 7.9958C11.3333 8.27715 11.2513 8.54316 11.0878 8.75584C11.0507 8.79384 10.9094 8.96118 10.7759 9.09785C9.99693 9.94856 7.96366 11.354 6.89428 11.78C6.73862 11.8487 6.32311 11.992 6.10754 12C5.89979 12 5.6992 11.9547 5.50642 11.8553C5.26936 11.7187 5.08375 11.5066 4.97954 11.2553C4.91246 11.0806 4.80891 10.5566 4.80891 10.5413C4.74183 10.1672 4.69168 9.64188 4.66693 9.02852C4.66237 8.91851 4.71773 8.81184 4.80956 8.75517" fill="#163C9F"/>
<path opacity="0.4" d="M5.11488 7.24015C4.91363 7.36483 4.66029 7.20549 4.67006 6.96614C4.69416 6.40478 4.73584 5.91009 4.78664 5.54207C4.79445 5.53407 4.898 4.88137 5.01719 4.66069C5.22494 4.25067 5.63264 3.99999 6.07094 3.99999H6.10741C6.39006 4.00733 6.99119 4.258 6.99119 4.27334C7.29403 4.39934 7.68935 4.61269 8.11463 4.86937C8.3061 4.98537 8.31066 5.27006 8.11919 5.38806L5.11488 7.24015Z" fill="#163C9F"/>
</svg>
