<svg width="22" height="20" viewBox="0 0 22 20" fill="none" xmlns="http://www.w3.org/2000/svg">
<path fill-rule="evenodd" clip-rule="evenodd" d="M10.4956 18.6037C8.21071 17.2679 6.08514 15.6956 4.15691 13.9151C2.80128 12.6329 1.76924 11.0697 1.13986 9.34536C0.0072827 6.00027 1.33021 2.1708 5.03252 1.03749C6.9783 0.442404 9.10339 0.782522 10.743 1.95145C12.3833 0.783946 14.5076 0.443947 16.4535 1.03749C20.1558 2.1708 21.4883 6.00027 20.3557 9.34536C19.7263 11.0697 18.6943 12.6329 17.3386 13.9151C15.4104 15.6956 13.2848 17.2679 11 18.6037L10.7525 18.75L10.4956 18.6037Z" stroke="#163C9F" stroke-width="1.5" stroke-linecap="round" stroke-linejoin="round"/>
<path opacity="0.4" d="M14.6833 4.80298C15.8046 5.14328 16.6014 6.09968 16.701 7.22496" stroke="#163C9F" stroke-width="1.5" stroke-linecap="round" stroke-linejoin="round"/>
</svg>
