<svg width="22" height="21" viewBox="0 0 22 21" fill="none" xmlns="http://www.w3.org/2000/svg">
<path fill-rule="evenodd" clip-rule="evenodd" d="M11.5014 1.21659L13.9404 6.13059C14.0614 6.37859 14.2964 6.55059 14.5694 6.59159L20.0274 7.38259C20.2484 7.41159 20.4484 7.52859 20.5834 7.70659C20.8374 8.03759 20.7994 8.50959 20.4944 8.79559L16.5404 12.6356C16.3404 12.8226 16.2504 13.1006 16.3024 13.3686L17.2554 18.7816C17.3214 19.2316 17.0164 19.6496 16.5694 19.7236C16.3834 19.7526 16.1934 19.7226 16.0264 19.6386L11.1584 17.0876C10.9144 16.9546 10.6204 16.9546 10.3774 17.0876L5.47738 19.6566C5.06838 19.8626 4.57238 19.7076 4.35038 19.3096C4.26538 19.1486 4.23438 18.9626 4.26438 18.7816L5.21738 13.3686C5.26338 13.1006 5.17438 12.8256 4.97938 12.6356L0.994376 8.79459C0.669376 8.47059 0.668376 7.94459 0.992376 7.61859C0.993376 7.61859 0.993376 7.61759 0.994376 7.61659C1.12738 7.49559 1.29238 7.41359 1.47038 7.38259L6.92838 6.59159C7.19938 6.54759 7.43438 6.37559 7.55738 6.13059L9.99638 1.21659C10.0934 1.01659 10.2674 0.863594 10.4784 0.793594C10.6894 0.722594 10.9204 0.738594 11.1204 0.839594C11.2844 0.921594 11.4174 1.05359 11.5014 1.21659Z" fill="#FFB803" stroke="#FFB803" stroke-width="1.5" stroke-linecap="round" stroke-linejoin="round"/>
</svg>
